HIERARCHY
ROOT newVegas:Hips
{
	OFFSET 0.000000 96.479958 0.000000
	CHANNELS 6 Xposition Yposition Zposition Xrotation Yrotation Zrotation
	JOINT newVegas:Pelvis
	{
		OFFSET 0.000000 0.000000 0.000000
		CHANNELS 3 Xrotation Yrotation Zrotation
		JOINT newVegas:LeftUpLeg
		{
			OFFSET 18.735201 -5.666702 -4.541200
			CHANNELS 3 Xrotation Yrotation Zrotation
			JOINT newVegas:LeftLeg
			{
				OFFSET -0.021200 -31.938179 0.493100
				CHANNELS 3 Xrotation Yrotation Zrotation
				JOINT newVegas:LeftFoot
				{
					OFFSET 0.021200 -31.938179 -4.336299
					CHANNELS 3 Xrotation Yrotation Zrotation
					JOINT newVegas:LeftToeBase
					{
						OFFSET 0.943001 -26.722000 15.023500
						CHANNELS 3 Xrotation Yrotation Zrotation
						End Site
						{
							OFFSET 0.000000 30.670183 0.000000
						}
					}
				}
				JOINT newVegas:Left_PantLeg
				{
					OFFSET 0.663870 -9.044666 -1.108900
					CHANNELS 3 Xrotation Yrotation Zrotation
					End Site
					{
						OFFSET 1.415995 20.635357 0.000000
					}
				}
			}
		}
		JOINT newVegas:RightUpLeg
		{
			OFFSET -18.735201 -5.666702 -4.541200
			CHANNELS 3 Xrotation Yrotation Zrotation
			JOINT newVegas:RightLeg
			{
				OFFSET 0.018946 -31.938133 0.493100
				CHANNELS 3 Xrotation Yrotation Zrotation
				JOINT newVegas:RightFoot
				{
					OFFSET -0.018946 -31.938126 -4.336299
					CHANNELS 3 Xrotation Yrotation Zrotation
					JOINT newVegas:RightToeBase
					{
						OFFSET -0.943001 -26.722004 15.023500
						CHANNELS 3 Xrotation Yrotation Zrotation
						End Site
						{
							OFFSET 0.000000 30.670187 0.000000
						}
					}
				}
				JOINT newVegas:Right_PantLeg
				{
					OFFSET -0.661674 -9.044716 -1.108900
					CHANNELS 3 Xrotation Yrotation Zrotation
					End Site
					{
						OFFSET -1.415958 20.635269 0.000000
					}
				}
			}
		}
	}
	JOINT newVegas:Spine
	{
		OFFSET 0.000000 10.199997 -0.299500
		CHANNELS 3 Xrotation Yrotation Zrotation
		JOINT newVegas:Spine1
		{
			OFFSET 0.000000 11.900002 -1.516600
			CHANNELS 3 Xrotation Yrotation Zrotation
			JOINT newVegas:Spine2
			{
				OFFSET 0.000000 13.600006 -2.842500
				CHANNELS 3 Xrotation Yrotation Zrotation
				JOINT newVegas:Neck
				{
					OFFSET 0.000000 9.624100 -2.890100
					CHANNELS 3 Xrotation Yrotation Zrotation
					JOINT newVegas:Head
					{
						OFFSET 0.000000 14.068802 -1.351900
						CHANNELS 3 Xrotation Yrotation Zrotation
						JOINT newVegas:Hair_Back
						{
							OFFSET 0.000000 3.231903 -17.524799
							CHANNELS 3 Xrotation Yrotation Zrotation
							End Site
							{
								OFFSET 0.000000 19.849884 0.000000
							}
						}
						JOINT newVegas:Hair_Front
						{
							OFFSET 0.000000 31.260406 4.573800
							CHANNELS 3 Xrotation Yrotation Zrotation
							JOINT newVegas:Hair_Front1
							{
								OFFSET 0.000000 2.284103 11.993300
								CHANNELS 3 Xrotation Yrotation Zrotation
								JOINT newVegas:Hair_Front2
								{
									OFFSET 0.000000 2.284103 11.993300
									CHANNELS 3 Xrotation Yrotation Zrotation
									End Site
									{
										OFFSET 0.000000 12.208862 0.000000
									}
								}
							}
						}
						JOINT newVegas:Jowel
						{
							OFFSET 0.000000 -7.458206 6.864100
							CHANNELS 3 Xrotation Yrotation Zrotation
							End Site
							{
								OFFSET 0.000000 19.849884 0.000000
							}
						}
					}
				}
				JOINT newVegas:LeftShoulder
				{
					OFFSET 15.263000 10.923401 -0.547700
					CHANNELS 3 Xrotation Yrotation Zrotation
					JOINT newVegas:LeftArm
					{
						OFFSET 25.438599 -2.830597 -13.032500
						CHANNELS 3 Xrotation Yrotation Zrotation
						JOINT newVegas:LeftForeArm
						{
							OFFSET 29.960503 0.000000 0.000000
							CHANNELS 3 Xrotation Yrotation Zrotation
							JOINT newVegas:LeftHand
							{
								OFFSET 27.849251 0.000000 0.000000
								CHANNELS 3 Xrotation Yrotation Zrotation
								JOINT newVegas:LeftHandThumb1
								{
									OFFSET 4.487587 -3.305161 6.305391
									CHANNELS 3 Xrotation Yrotation Zrotation
									JOINT newVegas:LeftHandThumb2
									{
										OFFSET 5.480453 -3.164139 3.164143
										CHANNELS 3 Xrotation Yrotation Zrotation
										JOINT newVegas:LeftHandThumb3
										{
											OFFSET 5.159721 -2.978973 2.978967
											CHANNELS 3 Xrotation Yrotation Zrotation
											End Site
											{
												OFFSET 2.494507 5.926697 1.738678
											}
										}
									}
								}
								JOINT newVegas:LeftHandIndex1
								{
									OFFSET 18.578728 -0.527832 5.208049
									CHANNELS 3 Xrotation Yrotation Zrotation
									JOINT newVegas:LeftHandIndex2
									{
										OFFSET 3.192009 0.000000 0.000000
										CHANNELS 3 Xrotation Yrotation Zrotation
										JOINT newVegas:LeftHandIndex3
										{
											OFFSET 3.835129 0.000000 0.000000
											CHANNELS 3 Xrotation Yrotation Zrotation
											End Site
											{
												OFFSET -0.034599 3.816971 0.371180
											}
										}
									}
								}
								JOINT newVegas:LeftHandMiddle1
								{
									OFFSET 18.476105 0.000000 0.000000
									CHANNELS 3 Xrotation Yrotation Zrotation
									JOINT newVegas:LeftHandMiddle2
									{
										OFFSET 3.324875 0.000000 0.000000
										CHANNELS 3 Xrotation Yrotation Zrotation
										JOINT newVegas:LeftHandMiddle3
										{
											OFFSET 4.596550 0.000000 0.000000
											CHANNELS 3 Xrotation Yrotation Zrotation
											End Site
											{
												OFFSET 0.057701 4.578827 0.399218
											}
										}
									}
								}
								JOINT newVegas:LeftHandRing1
								{
									OFFSET 17.732719 0.121887 -4.201567
									CHANNELS 3 Xrotation Yrotation Zrotation
									JOINT newVegas:LeftHandRing2
									{
										OFFSET 2.733170 0.000000 0.000000
										CHANNELS 3 Xrotation Yrotation Zrotation
										JOINT newVegas:LeftHandRing3
										{
											OFFSET 3.178268 0.000000 0.000000
											CHANNELS 3 Xrotation Yrotation Zrotation
											End Site
											{
												OFFSET 0.119102 3.170624 0.185394
											}
										}
									}
								}
								JOINT newVegas:LeftHandPinky1
								{
									OFFSET 15.989624 -0.606689 -7.535461
									CHANNELS 3 Xrotation Yrotation Zrotation
									JOINT newVegas:LeftHandPinky2
									{
										OFFSET 2.538986 0.000000 0.000000
										CHANNELS 3 Xrotation Yrotation Zrotation
										JOINT newVegas:LeftHandPinky3
										{
											OFFSET 2.593102 0.000000 0.000000
											CHANNELS 3 Xrotation Yrotation Zrotation
											End Site
											{
												OFFSET -0.150902 2.584198 0.152708
											}
										}
									}
								}
							}
							JOINT newVegas:Left_Sleeve
							{
								OFFSET 0.267448 -0.649796 0.577675
								CHANNELS 3 Xrotation Yrotation Zrotation
								End Site
								{
									OFFSET 0.000000 15.991241 0.000000
								}
							}
							JOINT newVegas:Left_CapeC
							{
								OFFSET 15.715958 -8.608795 -6.935905
								CHANNELS 3 Xrotation Yrotation Zrotation
								JOINT newVegas:Left_CapeC1
								{
									OFFSET 0.000000 -8.688499 0.000000
									CHANNELS 3 Xrotation Yrotation Zrotation
									End Site
									{
										OFFSET 0.000000 8.688499 0.000000
									}
								}
							}
						}
						JOINT newVegas:Left_CapeB
						{
							OFFSET 26.118385 -8.608795 -7.079235
							CHANNELS 3 Xrotation Yrotation Zrotation
							JOINT newVegas:Left_CapeB1
							{
								OFFSET 0.000000 -8.688499 0.000000
								CHANNELS 3 Xrotation Yrotation Zrotation
								End Site
								{
									OFFSET 0.000000 8.688499 0.000000
								}
							}
						}
						JOINT newVegas:Left_CapeA
						{
							OFFSET 5.115639 -8.608795 -10.395809
							CHANNELS 3 Xrotation Yrotation Zrotation
							JOINT newVegas:Left_CapeA1
							{
								OFFSET 0.000000 -8.688499 0.000000
								CHANNELS 3 Xrotation Yrotation Zrotation
								End Site
								{
									OFFSET 0.000000 8.688499 0.000000
								}
							}
						}
					}
				}
				JOINT newVegas:RightShoulder
				{
					OFFSET -15.263000 10.923401 -0.547700
					CHANNELS 3 Xrotation Yrotation Zrotation
					JOINT newVegas:RightArm
					{
						OFFSET -25.438599 -2.830597 -13.032500
						CHANNELS 3 Xrotation Yrotation Zrotation
						JOINT newVegas:RightForeArm
						{
							OFFSET -29.960503 0.000000 0.000000
							CHANNELS 3 Xrotation Yrotation Zrotation
							JOINT newVegas:RightHand
							{
								OFFSET -27.849251 0.000000 0.000000
								CHANNELS 3 Xrotation Yrotation Zrotation
								JOINT newVegas:RightHandThumb1
								{
									OFFSET -4.487587 -3.305161 6.305391
									CHANNELS 3 Xrotation Yrotation Zrotation
									JOINT newVegas:RightHandThumb2
									{
										OFFSET -5.480453 -3.164139 3.164143
										CHANNELS 3 Xrotation Yrotation Zrotation
										JOINT newVegas:RightHandThumb3
										{
											OFFSET -5.159721 -2.978973 2.978967
											CHANNELS 3 Xrotation Yrotation Zrotation
											End Site
											{
												OFFSET -2.494507 5.926697 1.738678
											}
										}
									}
								}
								JOINT newVegas:RightHandIndex1
								{
									OFFSET -18.578728 -0.527832 5.208049
									CHANNELS 3 Xrotation Yrotation Zrotation
									JOINT newVegas:RightHandIndex2
									{
										OFFSET -3.192009 0.000000 0.000000
										CHANNELS 3 Xrotation Yrotation Zrotation
										JOINT newVegas:RightHandIndex3
										{
											OFFSET -3.835129 0.000000 0.000000
											CHANNELS 3 Xrotation Yrotation Zrotation
											End Site
											{
												OFFSET 0.034599 3.816971 0.371180
											}
										}
									}
								}
								JOINT newVegas:RightHandMiddle1
								{
									OFFSET -18.476105 0.000000 0.000000
									CHANNELS 3 Xrotation Yrotation Zrotation
									JOINT newVegas:RightHandMiddle2
									{
										OFFSET -3.324875 0.000000 0.000000
										CHANNELS 3 Xrotation Yrotation Zrotation
										JOINT newVegas:RightHandMiddle3
										{
											OFFSET -4.596550 0.000000 0.000000
											CHANNELS 3 Xrotation Yrotation Zrotation
											End Site
											{
												OFFSET -0.057701 4.578827 0.399218
											}
										}
									}
								}
								JOINT newVegas:RightHandRing1
								{
									OFFSET -17.732719 0.121887 -4.201567
									CHANNELS 3 Xrotation Yrotation Zrotation
									JOINT newVegas:RightHandRing2
									{
										OFFSET -2.733170 0.000000 0.000000
										CHANNELS 3 Xrotation Yrotation Zrotation
										JOINT newVegas:RightHandRing3
										{
											OFFSET -3.178268 0.000000 0.000000
											CHANNELS 3 Xrotation Yrotation Zrotation
											End Site
											{
												OFFSET -0.119102 3.170624 0.185394
											}
										}
									}
								}
								JOINT newVegas:RightHandPinky1
								{
									OFFSET -15.989624 -0.606689 -7.535461
									CHANNELS 3 Xrotation Yrotation Zrotation
									JOINT newVegas:RightHandPinky2
									{
										OFFSET -2.538986 0.000000 0.000000
										CHANNELS 3 Xrotation Yrotation Zrotation
										JOINT newVegas:RightHandPinky3
										{
											OFFSET -2.593102 0.000000 0.000000
											CHANNELS 3 Xrotation Yrotation Zrotation
											End Site
											{
												OFFSET 0.150902 2.584198 0.152708
											}
										}
									}
								}
							}
							JOINT newVegas:Right_CapeC
							{
								OFFSET -15.715958 -8.608795 -6.935905
								CHANNELS 3 Xrotation Yrotation Zrotation
								JOINT newVegas:Right_CapeC1
								{
									OFFSET 0.000000 -8.688499 0.000000
									CHANNELS 3 Xrotation Yrotation Zrotation
									End Site
									{
										OFFSET 0.000000 8.688499 0.000000
									}
								}
							}
							JOINT newVegas:Right_Sleeve
							{
								OFFSET -0.267448 -0.649994 0.577675
								CHANNELS 3 Xrotation Yrotation Zrotation
								End Site
								{
									OFFSET 0.000000 15.991302 0.000000
								}
							}
						}
						JOINT newVegas:Right_CapeA
						{
							OFFSET -5.115540 -8.608795 -10.395824
							CHANNELS 3 Xrotation Yrotation Zrotation
							JOINT newVegas:Right_CapeA1
							{
								OFFSET 0.000000 -8.688499 0.000000
								CHANNELS 3 Xrotation Yrotation Zrotation
								End Site
								{
									OFFSET 0.000000 8.688499 0.000000
								}
							}
						}
						JOINT newVegas:Right_CapeB
						{
							OFFSET -26.118187 -8.608795 -7.079266
							CHANNELS 3 Xrotation Yrotation Zrotation
							JOINT newVegas:Right_CapeB1
							{
								OFFSET 0.000000 -8.688499 0.000000
								CHANNELS 3 Xrotation Yrotation Zrotation
								End Site
								{
									OFFSET 0.000000 8.688499 0.000000
								}
							}
						}
					}
				}
				JOINT newVegas:Left_Collar
				{
					OFFSET 18.625099 8.655502 8.828100
					CHANNELS 3 Xrotation Yrotation Zrotation
					JOINT newVegas:Left_Collar1
					{
						OFFSET 14.783401 10.540405 -1.259500
						CHANNELS 3 Xrotation Yrotation Zrotation
						End Site
						{
							OFFSET 0.000000 18.199875 0.000000
						}
					}
				}
				JOINT newVegas:Collar_Back
				{
					OFFSET 0.000000 15.630707 -20.132601
					CHANNELS 3 Xrotation Yrotation Zrotation
					End Site
					{
						OFFSET 0.000000 22.523010 0.000000
					}
				}
				JOINT newVegas:Left_Peck
				{
					OFFSET 17.239599 -5.132599 25.482599
					CHANNELS 3 Xrotation Yrotation Zrotation
					End Site
					{
						OFFSET 0.000000 22.523010 0.000000
					}
				}
				JOINT newVegas:Right_Peck
				{
					OFFSET -17.239599 -5.132202 25.482599
					CHANNELS 3 Xrotation Yrotation Zrotation
					End Site
					{
						OFFSET 0.000000 22.523010 0.000000
					}
				}
				JOINT newVegas:Right_Collar
				{
					OFFSET -18.625099 8.655792 8.828100
					CHANNELS 3 Xrotation Yrotation Zrotation
					JOINT newVegas:Right_Collar1
					{
						OFFSET -14.783401 10.539993 -1.259500
						CHANNELS 3 Xrotation Yrotation Zrotation
						End Site
						{
							OFFSET 0.000000 18.199631 0.000000
						}
					}
				}
			}
		}
		JOINT newVegas:Belly
		{
			OFFSET 0.000000 -6.540398 9.014299
			CHANNELS 3 Xrotation Yrotation Zrotation
			End Site
			{
				OFFSET 0.000000 11.566666 0.000000
			}
		}
	}
	JOINT newVegas:ElvisFacialAnim_Joint
	{
		OFFSET 1.000000 -95.330101 -8.825800
		CHANNELS 3 Xrotation Yrotation Zrotation
		End Site
		{
			OFFSET 0.000000 35.315800 0.000000
		}
	}
}
MOTION
Frames: 4
Frame Time: 0.033333
14.036688 89.685699 25.551941 -5.005158 9.745649 -5.435071 0.000000 0.000000 -0.000000 -3.506029 17.372432 17.284707 40.449620 5.955875 3.131446 -32.064958 6.368263 -14.702081 -0.000000 -0.000000 -0.000000 0.000001 -0.000003 0.000003 -36.125048 3.194835 -19.253706 44.354637 -9.428375 5.709197 -19.587398 -19.616787 -4.417791 -0.000000 -0.000002 -0.000002 0.000000 -0.000001 -0.000002 17.547314 -0.143339 0.954405 5.837765 -0.088997 0.238002 5.799502 -0.137922 -0.020637 -1.177407 -0.037399 0.101807 -1.177391 -0.037400 0.101808 -0.000002 0.000000 0.000000 -1.177261 -0.037399 0.101808 -1.177547 -0.037399 0.101805 -0.000001 -0.000000 0.000000 -0.000002 0.000000 -0.000000 5.520882 -16.873202 0.194976 -42.345537 21.933867 -18.959352 0.000166 -84.421466 0.000169 -42.582842 -12.388858 6.172536 -1.569129 1.826320 6.604331 4.786177 18.329352 1.497175 0.000000 -0.000001 -0.000004 0.040151 0.744158 -6.178687 0.073511 1.005461 -8.362026 0.000000 0.000000 0.000001 0.039945 0.742228 -6.162712 0.073781 1.007381 -8.378007 0.000000 -0.000001 -0.000000 0.040163 0.744156 -6.178690 0.073501 1.005456 -8.362020 0.000001 -0.000004 -0.000000 0.459692 4.776765 -5.688459 0.064492 -3.049507 -8.867339 -0.000001 -0.000005 0.000000 -0.000003 -0.000001 -0.000002 -0.000003 -0.000001 -0.000002 -0.000004 -0.000001 -0.000002 -0.000001 0.000000 0.000000 -0.000001 0.000000 -0.000001 -0.000001 0.000000 0.000000 -0.000002 -0.000000 0.000000 8.177771 22.125384 1.153511 -0.449897 -33.720948 57.591322 -0.000861 92.591527 0.000803 -19.368610 -4.218123 -5.947879 -1.835892 -2.111853 -6.355047 5.343227 -16.346845 -0.741827 -0.000000 -0.000001 0.000001 0.032745 -0.675404 5.551009 0.029469 -0.640831 5.265976 -0.000000 0.000003 -0.000001 0.032756 -0.675408 5.551004 0.029467 -0.640822 5.265977 -0.000001 0.000001 -0.000002 0.032743 -0.675400 5.551017 0.029486 -0.640824 5.265952 0.000001 -0.000003 0.000000 0.032748 -0.675400 5.551013 0.029467 -0.640820 5.265973 0.000001 0.000003 -0.000001 0.000000 0.000000 0.000002 -0.000001 0.000003 -0.000001 0.000000 -0.000000 0.000001 0.000001 0.000001 -0.000001 0.000001 0.000002 -0.000000 0.000001 0.000001 -0.000001 0.000001 0.000002 0.000001 -0.000000 0.000001 -0.000001 -0.000000 0.000001 -0.000001 -0.000000 0.000001 -0.000001 -0.000000 0.000001 -0.000001 -0.000000 0.000001 -0.000001 -0.000000 0.000001 -0.000001 -0.000000 0.000001 -0.000001 0.000000 0.000000 -0.000001 0.000000 0.000000 -0.000000 
13.367184 88.651138 27.674961 -4.540522 8.793583 -5.375711 0.000000 0.000001 -0.000000 -1.688097 17.588200 17.933973 40.556680 6.481007 2.709751 -33.591178 7.334718 -16.392580 0.000000 -0.000000 -0.000000 -0.000001 -0.000001 -0.000000 -35.446452 8.164759 -20.706786 41.821573 -8.623234 10.113011 -20.214278 -22.762606 -5.637174 -0.000001 -0.000003 -0.000002 -0.000000 0.000001 -0.000002 17.208376 -1.629363 1.423701 5.859331 -0.562824 0.596528 5.987652 -0.552678 0.140823 -1.178329 0.112854 0.079287 -1.178345 0.112853 0.079289 0.000001 0.000000 -0.000000 -1.178342 0.112842 0.079291 -1.178256 0.112854 0.079288 -0.000002 0.000000 0.000000 0.000001 0.000000 -0.000000 5.715550 -16.966702 0.317029 -42.690431 21.313747 -18.383575 -0.000197 -83.874279 -0.000167 -43.426527 -12.656944 5.490311 -1.572006 1.920057 6.657151 4.777408 18.215565 1.489578 -0.000000 0.000000 0.000001 0.039843 0.741270 -6.154467 0.070934 0.987828 -8.214522 0.000002 -0.000000 0.000000 0.039642 0.739328 -6.138466 0.071215 0.989748 -8.230524 -0.000003 0.000002 -0.000002 0.039841 0.741257 -6.154457 0.070935 0.987828 -8.214533 0.000000 -0.000001 -0.000001 0.457643 4.774025 -5.664145 0.061777 -3.067100 -8.720031 -0.000002 -0.000002 -0.000001 -0.000003 0.000002 0.000000 -0.000003 0.000002 0.000000 -0.000003 0.000002 0.000000 0.000000 0.000001 -0.000001 0.000001 0.000002 -0.000002 0.000000 0.000001 -0.000001 -0.000000 0.000000 -0.000001 8.617814 21.945551 1.732561 -1.600026 -33.333553 58.269143 -0.000458 92.839148 0.000491 -18.529974 -3.904405 -5.842537 -1.836329 -2.181250 -6.365798 5.331341 -16.210990 -0.733292 0.000002 -0.000003 -0.000003 0.032865 -0.676712 5.561832 0.026239 -0.604747 4.968641 -0.000000 0.000002 -0.000003 0.032866 -0.676706 5.561836 0.026230 -0.604749 4.968640 0.000000 -0.000002 0.000001 0.032860 -0.676711 5.561841 0.026248 -0.604750 4.968624 0.000001 -0.000001 0.000001 0.032864 -0.676707 5.561839 0.026243 -0.604751 4.968634 -0.000000 0.000003 0.000001 0.000001 0.000002 0.000001 0.000000 0.000001 -0.000001 0.000001 0.000002 0.000001 -0.000001 0.000000 -0.000000 -0.000001 0.000000 -0.000000 -0.000001 0.000000 -0.000000 -0.000001 -0.000000 0.000001 -0.000001 -0.000000 0.000000 -0.000001 -0.000000 0.000000 -0.000001 -0.000000 0.000000 -0.000001 -0.000000 0.000000 -0.000001 -0.000000 0.000000 -0.000001 -0.000000 0.000000 -0.000001 -0.000000 0.000000 0.000000 0.000000 0.000000 0.000000 0.000001 -0.000000 
12.497118 87.478561 29.992630 -3.991344 7.767954 -5.230778 0.000000 0.000000 -0.000000 0.515221 17.797866 18.493086 40.194161 6.976114 2.310290 -34.893196 8.511433 -18.284027 0.000000 -0.000002 -0.000000 -0.000000 -0.000002 -0.000000 -35.596952 9.390433 -21.271017 39.133620 -8.269041 10.617580 -20.799232 -23.362998 -4.932079 -0.000003 -0.000001 -0.000001 0.000000 -0.000001 -0.000001 17.032123 -3.034415 1.906387 5.973562 -0.999640 0.989122 6.165481 -0.939839 0.554821 -1.279924 0.287197 0.060371 -1.279921 0.287197 0.060370 0.000000 0.000000 0.000000 -1.279857 0.287199 0.060369 -1.279997 0.287201 0.060369 -0.000001 -0.000000 0.000000 0.000000 0.000000 0.000000 6.022292 -17.431285 0.057086 -42.993155 20.788099 -17.817317 -0.000067 -83.522019 -0.000062 -45.135345 -13.460840 5.324432 -1.574997 2.014013 6.710152 4.768608 18.101425 1.481982 -0.000000 -0.000000 -0.000003 0.039524 0.738321 -6.130169 0.068431 0.970179 -8.066559 0.000000 -0.000001 0.000001 0.039328 0.736403 -6.114179 0.068677 0.972077 -8.082554 -0.000001 -0.000001 0.000000 0.039531 0.738327 -6.130160 0.068431 0.970174 -8.066563 0.000001 -0.000002 0.000000 0.455623 4.771267 -5.639763 0.059076 -3.084731 -8.572226 -0.000000 0.000000 0.000001 -0.000002 0.000000 0.000000 -0.000002 0.000000 0.000000 -0.000003 0.000001 0.000000 -0.000001 0.000001 0.000002 0.000000 0.000001 -0.000000 -0.000001 0.000001 0.000002 -0.000000 0.000001 0.000001 8.602068 21.600373 1.932736 -2.472096 -32.471706 59.002254 0.000419 92.715105 -0.000243 -17.734323 -3.679647 -5.764723 -1.836752 -2.250857 -6.376611 5.319312 -16.074700 -0.724769 0.000000 0.000000 0.000001 0.032995 -0.678023 5.572695 0.023188 -0.568525 4.670394 0.000001 -0.000003 -0.000000 0.032990 -0.678030 5.572703 0.023191 -0.568527 4.670393 -0.000001 -0.000001 0.000000 0.032991 -0.678026 5.572694 0.023192 -0.568529 4.670392 0.000001 0.000001 -0.000001 0.032993 -0.678021 5.572704 0.023192 -0.568540 4.670390 -0.000001 0.000003 -0.000001 0.000000 0.000002 0.000000 0.000000 -0.000001 0.000000 0.000000 0.000001 0.000000 -0.000000 0.000001 -0.000004 -0.000000 0.000002 -0.000002 -0.000000 0.000001 -0.000004 -0.000000 0.000002 -0.000000 0.000001 0.000000 0.000000 0.000001 0.000000 0.000000 0.000001 0.000000 0.000000 0.000001 0.000000 0.000000 0.000001 0.000000 0.000000 0.000001 0.000000 0.000000 0.000001 0.000000 0.000000 -0.000000 0.000000 0.000000 0.000000 0.000000 -0.000000 
11.452570 86.161758 32.493351 -3.454679 6.655583 -4.975090 -0.000000 -0.000000 -0.000001 2.625681 18.125775 18.648814 40.402642 8.302393 2.066660 -36.488629 9.337612 -19.468365 0.000000 0.000003 -0.000000 0.000003 -0.000001 -0.000002 -36.260634 8.698428 -21.394847 36.747797 -8.163193 9.867357 -21.155676 -22.210498 -3.510148 -0.000001 -0.000002 0.000001 0.000001 0.000002 -0.000000 17.031833 -4.210214 2.280835 6.251795 -1.347745 1.422947 6.392207 -1.298455 1.151752 -1.499092 0.450315 0.095256 -1.499091 0.450316 0.095255 -0.000002 0.000000 0.000000 -1.499171 0.450314 0.095258 -1.499022 0.450323 0.095254 -0.000002 0.000000 -0.000000 -0.000002 0.000000 0.000000 6.168552 -17.766504 -0.222921 -42.821536 20.247225 -17.695436 0.000099 -83.637046 0.000113 -46.948217 -14.672196 5.315828 -1.577994 2.108084 6.763300 4.759736 17.987158 1.474440 0.000001 0.000000 -0.000001 0.039228 0.735421 -6.105812 0.065939 0.952470 -7.918417 -0.000001 -0.000001 0.000000 0.039024 0.733498 -6.089841 0.066205 0.954381 -7.934387 -0.000000 0.000003 -0.000000 0.039236 0.735423 -6.105799 0.065932 0.952461 -7.918424 0.000000 0.000001 0.000000 0.453609 4.768547 -5.615279 0.056427 -3.102424 -8.424290 0.000001 -0.000007 0.000001 -0.000003 0.000000 -0.000001 -0.000003 0.000000 -0.000001 -0.000004 0.000000 -0.000001 -0.000001 0.000000 0.000001 -0.000000 0.000000 0.000001 -0.000001 0.000000 0.000001 -0.000001 -0.000000 0.000000 8.341053 21.231670 1.953956 -3.379257 -31.368077 59.513576 -0.000390 92.570770 0.000338 -17.184141 -3.887901 -5.810599 -1.837231 -2.320561 -6.387444 5.307191 -15.938234 -0.716327 0.000002 -0.000006 0.000000 0.033111 -0.679333 5.583579 0.020326 -0.532270 4.371777 0.000000 -0.000006 0.000001 0.033123 -0.679329 5.583567 0.020318 -0.532259 4.371786 -0.000000 -0.000000 0.000001 0.033129 -0.679336 5.583556 0.020321 -0.532258 4.371786 -0.000001 -0.000001 0.000001 0.033122 -0.679326 5.583564 0.020316 -0.532263 4.371793 -0.000001 -0.000002 -0.000000 -0.000001 0.000004 -0.000001 -0.000000 0.000004 0.000000 -0.000001 0.000004 -0.000000 -0.000001 0.000001 -0.000000 -0.000001 0.000002 -0.000000 -0.000001 0.000001 -0.000000 -0.000001 0.000002 0.000001 0.000000 0.000000 0.000000 0.000000 0.000000 0.000000 0.000000 0.000000 0.000000 0.000000 0.000000 0.000000 0.000000 0.000000 0.000000 0.000000 0.000000 0.000000 0.000000 0.000000 0.000000 -0.000001 -0.000000 -0.000001 -0.000000 -0.000000 -0.000001 
